<svg width="119" height="93" viewBox="0 0 119 93" fill="none" xmlns="http://www.w3.org/2000/svg">
<path d="M84.464 82.12C83.9617 82.1758 83.8222 82.2316 83.6827 82.3153C78.5763 85.8312 72.884 86.1939 66.7452 83.3757C64.0386 82.12 61.611 80.4737 59.2671 78.8832C58.7648 78.5484 58.2626 78.1856 57.7603 77.8508C48.9986 71.991 38.9254 68.6147 27.0106 67.5823C27.4292 69.8983 28.2384 72.8281 30.1358 75.2836C30.4148 75.6464 30.6102 75.7859 31.0566 75.8417C39.5114 76.93 47.3244 79.9714 54.942 85.1615C59.4903 88.2588 63.6479 90.9375 68.5032 92.1374C69.2565 92.3327 70.0378 92.4722 71.0145 92.6117C74.7256 93.1419 79.7204 93.0024 83.0409 92.9187C84.1291 92.8908 85.0499 92.8629 85.7475 92.8629H100.062C99.4761 92.2769 98.9459 91.663 98.5273 91.1329C97.0484 89.1796 95.2905 86.0265 95.0394 81.8131C90.9376 81.7573 87.5613 81.841 84.464 82.12Z" fill="#282110"/>
<path d="M0.139526 63.8433C0.139526 71.6842 3.57166 78.2694 10.0453 82.9293C17.5234 88.2868 28.6848 90.9934 43.1947 90.9934C47.3523 90.9934 51.3704 90.3796 55.1932 89.1518C54.077 88.4542 52.933 87.7008 51.6773 86.8079C51.2309 86.501 50.7844 86.2219 50.3659 85.9429C49.3055 85.9987 47.1849 86.0266 46.4594 86.0266C31.0287 86.0266 20.6486 74.5583 20.6486 63.8433C20.6486 49.6683 30.6939 40.516 46.2082 40.516C46.9895 40.516 49.0823 40.5439 50.1426 40.5718C50.7007 40.2369 51.2588 39.8742 51.9006 39.4556C52.5981 38.9813 53.3794 38.479 54.1607 37.9768C49.9194 37.1117 45.1758 36.6653 40.0416 36.6653C16.5468 36.6932 0.139526 47.8546 0.139526 63.8433Z" fill="#282110"/>
<path d="M48.5521 5.02264C57.0906 5.02264 68.0287 9.40349 71.9073 30.0521C72.577 29.9963 73.2467 29.9684 73.8606 29.9405C74.028 29.9405 74.2233 29.9405 74.3907 29.9405C82.0084 29.9405 89.4865 33.0936 94.6766 38.3953C91.2724 14.0355 75.3116 0.139526 50.5053 0.139526C30.1358 0.139526 15.9608 6.38991 10.5475 17.6908C9.51507 19.8673 9.65459 22.3786 10.9661 24.4156C12.2496 26.4525 14.454 27.6803 16.8537 27.6803H31.6705C30.9729 24.6388 29.7451 16.6305 33.9865 10.9382C36.8884 7.00379 41.7994 5.02264 48.5521 5.02264Z" fill="#282110"/>
<path d="M63.3967 73.9722C65.4058 75.3116 67.3032 76.5672 69.3402 77.5997C70.3168 78.1019 71.0702 78.1856 72.1305 77.8787C79.6645 75.6743 87.2263 75.3953 92.9466 75.3953C94.5929 75.3953 96.2392 75.4232 97.8297 75.4511C101.066 75.5069 104.527 75.5069 107.903 75.3953C113.149 75.2 117.613 71.1819 118.534 65.8523C118.646 65.1547 118.702 64.485 118.702 63.8711C118.729 57.3975 113.707 52.2633 107.233 52.1238C104.722 52.0679 102.155 52.0679 99.6713 52.04C98.8342 52.04 97.9692 52.04 97.1321 52.0121H92.1932C90.4073 51.9842 88.9843 51.9284 87.6449 51.8447C81.6177 51.5378 76.2323 50.5891 71.2376 48.9707C71.0144 48.8869 70.7912 48.9707 69.8982 49.3613C67.666 50.3658 65.629 51.6773 63.4804 53.1004C63.0898 53.3515 62.727 53.6026 62.3643 53.798C65.2942 55.1652 68.3915 56.2814 71.7678 57.1743C78.0461 58.8206 85.022 59.6577 93.7558 59.7693C97.9971 59.8251 102.294 59.8251 106.452 59.8251C107.428 59.8251 108.852 59.9367 109.912 60.9971C110.609 61.6947 110.972 62.6434 110.972 63.8153V63.8711C110.916 64.792 110.47 67.7776 106.48 67.7776C106.452 67.7776 106.396 67.7776 106.368 67.7776H106.145C101.569 67.7218 96.8531 67.6939 92.249 67.666C80.3342 67.6381 70.7354 69.396 62.2527 73.1909C62.5875 73.4141 62.8945 73.6095 63.2293 73.8327L63.3967 73.9722Z" fill="#282110"/>
<path d="M55.1095 41.7994C51.4262 44.1991 47.9104 46.0687 44.3387 47.4917C40.0137 49.2218 35.6886 50.31 31.1124 50.8123C30.6939 50.8681 30.4986 51.0076 30.2195 51.3424C28.2942 53.7979 27.485 56.6162 27.0106 59.0159C38.9533 58.0951 49.0544 54.8583 57.8719 49.1381C58.123 48.9706 58.3742 48.8032 58.6253 48.6358C58.8764 48.4684 59.1276 48.301 59.4066 48.1335C60.6623 47.2964 62.0016 46.4314 63.4247 45.5664C64.3734 45.0083 65.6012 44.3387 66.9127 43.7248C73.0793 40.9902 78.7716 41.4088 83.8501 45.0083C83.9617 45.092 84.1291 45.1758 84.6314 45.2316C87.5612 45.5106 90.7981 45.6501 94.5371 45.678C90.519 38.6742 82.5386 34.3213 74.2234 34.3213C72.4096 34.3213 70.5959 34.5166 68.7822 34.9631C63.9549 36.135 59.7414 38.7579 55.1095 41.7994Z" fill="#282110"/>
<path d="M56.0023 58.1788C51.175 60.6901 46.0129 62.5876 40.4601 63.8711C46.0408 65.2105 51.175 67.1638 55.9744 69.7309L58.1788 68.6706C62.3364 66.6615 66.6894 65.1268 71.4051 64.0665C70.8749 63.9549 70.3448 63.8153 69.8425 63.6758C65.657 62.5597 61.8621 61.1366 58.2346 59.3229L56.0023 58.1788Z" fill="#282110"/>
</svg>
