<svg width="94" height="74" viewBox="0 0 94 74" fill="none" xmlns="http://www.w3.org/2000/svg">
<path d="M66.4682 64.623C66.0729 64.6669 65.9631 64.7108 65.8533 64.7767C61.8349 67.5434 57.3554 67.8289 52.5246 65.6111C50.3946 64.623 48.4842 63.3274 46.6397 62.0758C46.2444 61.8123 45.8492 61.5268 45.4539 61.2633C38.559 56.6521 30.632 53.9951 21.2557 53.1826C21.5851 55.0052 22.2219 57.3108 23.7151 59.2431C23.9347 59.5286 24.0884 59.6384 24.4397 59.6823C31.0931 60.5387 37.2415 62.9322 43.2361 67.0164C46.8154 69.4538 50.0872 71.5618 53.9079 72.5061C54.5008 72.6598 55.1157 72.7695 55.8842 72.8793C58.8047 73.2965 62.7352 73.1868 65.3483 73.1209C66.2047 73.0989 66.9293 73.077 67.4783 73.077H78.7429C78.2818 72.6158 77.8646 72.1328 77.5352 71.7155C76.3714 70.1785 74.988 67.6972 74.7904 64.3814C71.5625 64.3375 68.9056 64.4034 66.4682 64.623Z" fill="#F9F6F2"/>
<path d="M0.109741 50.241C0.109741 56.4114 2.81063 61.5936 7.90499 65.2606C13.7899 69.4766 22.5732 71.6066 33.9916 71.6066C37.2634 71.6066 40.4254 71.1235 43.4338 70.1574C42.5554 69.6084 41.6551 69.0155 40.667 68.3128C40.3157 68.0713 39.9643 67.8517 39.6349 67.6321C38.8005 67.6761 37.1317 67.698 36.5608 67.698C24.4177 67.698 16.2492 58.6731 16.2492 50.241C16.2492 39.0862 24.1542 31.8838 36.3631 31.8838C36.978 31.8838 38.6249 31.9057 39.4593 31.9277C39.8984 31.6642 40.3376 31.3787 40.8427 31.0494C41.3916 30.6761 42.0065 30.2808 42.6213 29.8856C39.2836 29.2049 35.5507 28.8535 31.5103 28.8535C13.0213 28.8755 0.109741 37.6589 0.109741 50.241Z" fill="#F9F6F2"/>
<path d="M38.2076 3.95284C44.9269 3.95284 53.5346 7.40031 56.5869 23.6496C57.1139 23.6056 57.6409 23.5837 58.1239 23.5617C58.2557 23.5617 58.4094 23.5617 58.5412 23.5617C64.5358 23.5617 70.4207 26.043 74.5049 30.2151C71.826 11.0454 59.2658 0.110107 39.7447 0.110107C23.7151 0.110107 12.5602 5.0288 8.30023 13.922C7.48777 15.6347 7.59756 17.611 8.62961 19.214C9.6397 20.8169 11.3744 21.7831 13.2628 21.7831H24.9228C24.3738 19.3896 23.4076 13.0875 26.7453 8.60803C29.029 5.51188 32.8937 3.95284 38.2076 3.95284Z" fill="#F9F6F2"/>
<path d="M49.8894 58.2116C51.4704 59.2657 52.9636 60.2538 54.5666 61.0662C55.3351 61.4615 55.928 61.5274 56.7624 61.2858C62.6912 59.5511 68.6419 59.3315 73.1434 59.3315C74.439 59.3315 75.7345 59.3535 76.9862 59.3754C79.5333 59.4194 82.2562 59.4194 84.9132 59.3315C89.0413 59.1778 92.5547 56.0158 93.2793 51.8217C93.3672 51.2728 93.4111 50.7458 93.4111 50.2627C93.433 45.1683 89.4805 41.128 84.3861 41.0182C82.4099 40.9743 80.3897 40.9743 78.4354 40.9523C77.7767 40.9523 77.0959 40.9523 76.4372 40.9304H72.5505C71.1452 40.9084 70.0253 40.8645 68.9713 40.7986C64.2283 40.5571 59.9903 39.8105 56.0598 38.5369C55.8841 38.471 55.7084 38.5369 55.0057 38.8443C53.2491 39.6348 51.6461 40.6669 49.9553 41.7867C49.6479 41.9844 49.3624 42.182 49.077 42.3357C51.3826 43.4117 53.82 44.29 56.477 44.9927C61.4176 46.2882 66.9072 46.947 73.7802 47.0348C77.1179 47.0787 80.4995 47.0787 83.7713 47.0787C84.5399 47.0787 85.6597 47.1666 86.4942 48.001C87.0431 48.5499 87.3286 49.2965 87.3286 50.2188V50.2627C87.2847 50.9873 86.9333 53.3369 83.7933 53.3369C83.7713 53.3369 83.7274 53.3369 83.7054 53.3369H83.5298C79.9286 53.293 76.2176 53.271 72.5945 53.249C63.2182 53.2271 55.6645 54.6105 48.9891 57.5968C49.2526 57.7725 49.4942 57.9262 49.7577 58.1019L49.8894 58.2116Z" fill="#F9F6F2"/>
<path d="M43.3679 32.8937C40.4694 34.7821 37.7026 36.2533 34.8919 37.3732C31.4884 38.7346 28.0848 39.591 24.4836 39.9862C24.1543 40.0301 24.0005 40.1399 23.781 40.4034C22.2658 42.3358 21.629 44.5536 21.2557 46.442C30.654 45.7174 38.6029 43.1702 45.5418 38.6687C45.7394 38.537 45.937 38.4052 46.1347 38.2735C46.3323 38.1417 46.5299 38.01 46.7495 37.8782C47.7376 37.2195 48.7916 36.5388 49.9115 35.858C50.6581 35.4189 51.6243 34.8919 52.6563 34.4088C57.5091 32.2569 61.9886 32.5862 65.9851 35.4189C66.0729 35.4847 66.2047 35.5506 66.5999 35.5945C68.9056 35.8141 71.4527 35.9239 74.3952 35.9459C71.2332 30.4343 64.953 27.0088 58.4094 27.0088C56.9821 27.0088 55.5548 27.1625 54.1275 27.5138C50.3287 28.4361 47.013 30.5002 43.3679 32.8937Z" fill="#F9F6F2"/>
<path d="M44.0706 45.7832C40.2718 47.7595 36.2095 49.2526 31.8397 50.2627C36.2314 51.3167 40.2718 52.8538 44.0486 54.874L45.7833 54.0396C49.0551 52.4586 52.4807 51.2509 56.1916 50.4164C55.7744 50.3286 55.3572 50.2188 54.962 50.109C51.6682 49.2307 48.6818 48.1108 45.8273 46.6835L44.0706 45.7832Z" fill="#F9F6F2"/>
</svg>
