<svg width="1360" height="162" viewBox="0 0 1360 162" fill="none" xmlns="http://www.w3.org/2000/svg">
<rect width="1360" height="162" fill="#F3F5EB"/>
<path d="M523.936 100.063H516.801C514.069 100.063 510.729 97.4955 510.729 95.3813C510.729 95.3813 506.478 100.969 498.128 100.969C484.617 100.969 479 95.5324 479 88.8878C479 82.2432 485.68 76.8067 496.61 76.8067C507.996 76.8067 510.577 81.6391 510.577 81.6391C510.577 69.4071 506.478 63.9706 500.254 63.9706C490.538 63.9706 493.422 73.7864 493.422 73.7864H486.591C484.01 73.7864 482.34 71.2192 483.554 68.954C485.68 64.4236 491.449 61.1013 501.165 61.1013C512.854 61.1013 521.052 68.35 521.052 82.3942V94.6263C521.052 98.0996 523.936 100.063 523.936 100.063ZM510.729 88.8878C510.729 84.2064 508.148 79.2229 500.102 79.2229C493.726 79.2229 489.475 82.8472 489.475 88.8878C489.475 93.2672 493.878 98.0996 500.254 98.0996C507.693 98.0996 510.729 93.2672 510.729 88.8878Z" fill="#455600"/>
<path d="M582.536 89.7939V78.6189C582.536 68.803 580.714 63.8196 576.616 63.8196C569.784 63.8196 567.203 68.35 566.9 77.7128V89.7939C566.9 93.7202 567.659 96.4384 568.418 98.0996V98.2506C568.873 99.1567 569.177 99.7607 569.48 99.9118L569.632 100.063H553.692L553.995 99.7607C554.603 98.8547 556.424 95.6834 556.424 89.7939V78.6189C556.424 68.803 554.603 63.8196 550.504 63.8196C543.369 63.8196 540.788 68.803 540.788 78.6189V89.7939C540.788 93.7202 541.547 96.4384 542.306 98.0996V98.2506C542.761 99.1567 543.065 99.7607 543.369 99.9118L543.52 100.063H527.732L528.036 99.7607C528.795 98.8547 530.616 95.6834 530.616 89.7939V72.1253C530.616 68.652 529.857 66.0848 529.25 64.4236C528.643 62.9135 528.036 62.1584 527.884 61.8564C533.349 64.2726 539.573 64.4236 545.039 62.0074C546.708 61.2523 549.441 60.9503 551.718 60.9503C557.487 60.9503 561.282 63.6686 563.56 68.0479C565.837 64.4236 570.543 60.9503 576.616 60.9503C588.305 60.9503 593.163 69.8601 593.163 80.8841V89.7939C593.163 93.7202 593.922 96.4384 594.681 98.0996V98.2506C595.137 99.1567 595.44 99.7607 595.744 99.9118L595.896 100.063H579.652L579.955 99.7607C580.714 98.8547 582.536 95.6834 582.536 89.7939Z" fill="#455600"/>
<path d="M644.172 100.063H637.037C634.304 100.063 630.964 97.4955 630.964 95.3813C630.964 95.3813 626.713 100.969 618.364 100.969C604.852 100.969 599.235 95.5324 599.235 88.8878C599.235 82.2432 605.915 76.8067 616.846 76.8067C628.232 76.8067 630.812 81.6391 630.812 81.6391C630.812 69.4071 626.713 63.9706 620.489 63.9706C610.773 63.9706 613.658 73.7864 613.658 73.7864H606.674C604.093 73.7864 602.423 71.2192 603.638 68.954C605.763 64.4236 611.532 61.1013 621.248 61.1013C632.938 61.1013 641.136 68.35 641.136 82.3942V94.6263C641.439 98.0996 644.172 100.063 644.172 100.063ZM630.964 88.8878C630.964 84.2064 628.383 79.2229 620.337 79.2229C613.961 79.2229 609.71 82.8472 609.71 88.8878C609.71 93.2672 614.113 98.0996 620.489 98.0996C628.08 98.0996 630.964 93.2672 630.964 88.8878Z" fill="#455600"/>
<path d="M685.617 92.3611V100.214H648.271V91.153L678.33 64.8767H657.076C653.888 64.8767 651.004 67.897 648.423 69.8602C648.271 70.0112 648.271 69.8602 648.271 69.7091V61.8564H685.465V70.9172L655.558 97.1936H678.633C681.366 97.1936 683.947 94.4753 685.617 92.3611Z" fill="#455600"/>
<path d="M732.982 81.0351C732.982 92.0591 726.15 100.969 711.576 100.969C697.002 100.969 690.019 92.0591 690.019 81.0351C690.019 70.0111 696.851 61.1013 711.425 61.1013C726.15 60.9503 732.982 70.0111 732.982 81.0351ZM721.9 77.2598C719.471 70.4642 714.157 61.8564 705.656 65.0277C697.154 68.048 698.672 78.0148 701.101 84.8104C703.53 91.606 708.844 100.063 717.345 97.0425C725.847 93.8712 724.48 84.0554 721.9 77.2598Z" fill="#455600"/>
<path d="M770.328 89.7939V78.6189C770.328 68.803 767.899 63.8196 761.523 63.8196C753.325 63.8196 750.896 68.803 750.896 78.6189V89.7939C750.896 93.7202 751.655 96.4384 752.414 98.0996V98.2506C752.869 99.1567 753.173 99.7607 753.476 99.9118L753.628 100.063H737.688L737.992 99.7607C738.751 98.8547 740.572 95.6834 740.572 89.7939V72.1253C740.572 68.652 739.813 66.0848 739.206 64.4236C738.599 62.9135 737.992 62.1584 737.84 61.8564C743.305 64.2726 749.529 64.4236 754.995 62.0074C756.665 61.2523 759.397 60.9503 761.674 60.9503C775.186 60.9503 779.892 69.8601 779.892 80.8841V89.7939C779.892 93.7202 780.651 96.4384 781.41 98.0996V98.2506C781.865 99.1567 782.169 99.7607 782.473 99.9118L782.624 100.063H767.443L767.747 99.7607C768.506 98.8547 770.328 95.6834 770.328 89.7939Z" fill="#455600"/>
<path d="M789.304 89.7939V72.1253C789.304 64.8767 786.572 61.8564 786.572 61.8564H791.278C795.984 61.8564 799.779 65.6317 799.779 70.3131V89.9449C799.779 93.8712 800.538 96.5895 801.298 98.2506V98.4016C801.753 99.3077 802.057 99.9118 802.36 100.063L802.512 100.214H786.572L786.875 99.9118C787.483 98.8547 789.304 95.6834 789.304 89.7939ZM788.849 51.5875C788.849 48.5672 791.43 46 794.466 46C797.502 46 800.083 48.5672 800.083 51.5875C800.083 54.6078 797.502 57.175 794.466 57.175C791.43 57.175 788.849 54.6078 788.849 51.5875Z" fill="#455600"/>
<path d="M822.248 100.969C819.211 100.969 815.416 99.7608 813.443 97.7976C811.469 95.8344 810.255 93.1162 810.255 90.0959V64.7257H803.878V61.8565C813.594 61.8565 820.578 52.7957 820.578 52.7957V61.8565H830.142C828.017 64.1217 825.132 64.7257 822.096 64.7257H820.578V92.8142C820.578 95.5324 822.703 97.7976 825.284 97.9486C829.079 98.0997 831.66 93.2672 832.571 90.549C832.571 90.549 833.178 100.969 822.248 100.969Z" fill="#455600"/>
<path d="M880.695 100.063H873.56C870.827 100.063 867.488 97.4955 867.488 95.3813C867.488 95.3813 863.237 100.969 854.887 100.969C841.376 100.969 835.759 95.5324 835.759 88.8878C835.759 82.2432 842.439 76.8067 853.369 76.8067C864.755 76.8067 867.336 81.6391 867.336 81.6391C867.336 69.4071 863.237 63.9706 857.013 63.9706C847.297 63.9706 850.181 73.7864 850.181 73.7864H843.198C840.617 73.7864 838.947 71.2192 840.161 68.954C842.287 64.4236 848.056 61.1013 857.772 61.1013C869.461 61.1013 877.659 68.35 877.659 82.3942V94.6263C877.811 98.0996 880.695 100.063 880.695 100.063ZM867.488 88.8878C867.488 84.2064 864.907 79.2229 856.861 79.2229C850.485 79.2229 846.234 82.8472 846.234 88.8878C846.234 93.2672 850.636 98.0996 857.013 98.0996C864.451 98.0996 867.488 93.2672 867.488 88.8878Z" fill="#455600"/>
</svg>