<svg width="402" height="55" viewBox="0 0 402 55" fill="none" xmlns="http://www.w3.org/2000/svg">
<path d="M44.9364 54.0627H37.8013C35.0686 54.0627 31.7288 51.4955 31.7288 49.3813C31.7288 49.3813 27.478 54.9688 19.1284 54.9688C5.61706 54.9688 0 49.5324 0 42.8878C0 36.2432 6.67974 30.8067 17.6102 30.8067C28.9962 30.8067 31.577 35.6391 31.577 35.6391C31.577 23.4071 27.478 17.9706 21.2537 17.9706C11.5377 17.9706 14.4222 27.7864 14.4222 27.7864H7.59062C5.00981 27.7864 3.33987 25.2192 4.55437 22.954C6.67974 18.4236 12.4486 15.1013 22.1646 15.1013C33.8541 15.1013 42.052 22.35 42.052 36.3942V48.6263C42.052 52.0996 44.9364 54.0627 44.9364 54.0627ZM31.7288 42.8878C31.7288 38.2064 29.148 33.2229 21.1019 33.2229C14.7258 33.2229 10.475 36.8472 10.475 42.8878C10.475 47.2672 14.8776 52.0996 21.2537 52.0996C28.6925 52.0996 31.7288 47.2672 31.7288 42.8878Z" fill="#455600"/>
<path d="M103.536 43.7939V32.6189C103.536 22.803 101.714 17.8196 97.6155 17.8196C90.784 17.8196 88.2031 22.35 87.8995 31.7128V43.7939C87.8995 47.7202 88.6586 50.4384 89.4176 52.0996V52.2506C89.8731 53.1567 90.1767 53.7607 90.4803 53.9118L90.6321 54.0628H74.6918L74.9955 53.7607C75.6027 52.8547 77.4245 49.6834 77.4245 43.7939V32.6189C77.4245 22.803 75.6027 17.8196 71.5038 17.8196C64.3686 17.8196 61.7878 22.803 61.7878 32.6189V43.7939C61.7878 47.7202 62.5469 50.4384 63.3059 52.0996V52.2506C63.7614 53.1567 64.065 53.7607 64.3686 53.9118L64.5204 54.0628H48.7319L49.0356 53.7607C49.7946 52.8547 51.6164 49.6834 51.6164 43.7939V26.1253C51.6164 22.652 50.8573 20.0848 50.2501 18.4236C49.6428 16.9135 49.0356 16.1584 48.8837 15.8564C54.349 18.2726 60.5733 18.4236 66.0385 16.0074C67.7085 15.2523 70.4411 14.9503 72.7183 14.9503C78.4872 14.9503 82.2825 17.6686 84.5596 22.0479C86.8368 18.4236 91.543 14.9503 97.6155 14.9503C109.305 14.9503 114.163 23.8601 114.163 34.8841V43.7939C114.163 47.7202 114.922 50.4384 115.681 52.0996V52.2506C116.137 53.1567 116.44 53.7607 116.744 53.9118L116.896 54.0628H100.652L100.955 53.7607C101.714 52.8547 103.536 49.6834 103.536 43.7939Z" fill="#455600"/>
<path d="M165.172 54.0627H158.037C155.304 54.0627 151.964 51.4955 151.964 49.3813C151.964 49.3813 147.713 54.9688 139.364 54.9688C125.852 54.9688 120.235 49.5324 120.235 42.8878C120.235 36.2432 126.915 30.8067 137.846 30.8067C149.232 30.8067 151.812 35.6391 151.812 35.6391C151.812 23.4071 147.713 17.9706 141.489 17.9706C131.773 17.9706 134.658 27.7864 134.658 27.7864H127.674C125.093 27.7864 123.423 25.2192 124.638 22.954C126.763 18.4236 132.532 15.1013 142.248 15.1013C153.938 15.1013 162.136 22.35 162.136 36.3942V48.6263C162.439 52.0996 165.172 54.0627 165.172 54.0627ZM151.964 42.8878C151.964 38.2064 149.383 33.2229 141.337 33.2229C134.961 33.2229 130.71 36.8472 130.71 42.8878C130.71 47.2672 135.113 52.0996 141.489 52.0996C149.08 52.0996 151.964 47.2672 151.964 42.8878Z" fill="#455600"/>
<path d="M206.617 46.3611V54.2138H169.271V45.153L199.33 18.8767H178.076C174.888 18.8767 172.004 21.897 169.423 23.8602C169.271 24.0112 169.271 23.8602 169.271 23.7091V15.8564H206.465V24.9172L176.558 51.1936H199.633C202.366 51.1936 204.947 48.4753 206.617 46.3611Z" fill="#455600"/>
<path d="M253.982 35.0351C253.982 46.0591 247.15 54.9689 232.576 54.9689C218.002 54.9689 211.019 46.0591 211.019 35.0351C211.019 24.0111 217.851 15.1013 232.425 15.1013C247.15 14.9503 253.982 24.0111 253.982 35.0351ZM242.9 31.2598C240.471 24.4642 235.157 15.8564 226.656 19.0277C218.154 22.048 219.672 32.0148 222.101 38.8104C224.53 45.606 229.844 54.0628 238.345 51.0425C246.847 47.8712 245.48 38.0554 242.9 31.2598Z" fill="#455600"/>
<path d="M291.328 43.7939V32.6189C291.328 22.803 288.899 17.8196 282.523 17.8196C274.325 17.8196 271.896 22.803 271.896 32.6189V43.7939C271.896 47.7202 272.655 50.4384 273.414 52.0996V52.2506C273.869 53.1567 274.173 53.7607 274.476 53.9118L274.628 54.0628H258.688L258.992 53.7607C259.751 52.8547 261.572 49.6834 261.572 43.7939V26.1253C261.572 22.652 260.813 20.0848 260.206 18.4236C259.599 16.9135 258.992 16.1584 258.84 15.8564C264.305 18.2726 270.529 18.4236 275.995 16.0074C277.665 15.2523 280.397 14.9503 282.674 14.9503C296.186 14.9503 300.892 23.8601 300.892 34.8841V43.7939C300.892 47.7202 301.651 50.4384 302.41 52.0996V52.2506C302.865 53.1567 303.169 53.7607 303.473 53.9118L303.624 54.0628H288.443L288.747 53.7607C289.506 52.8547 291.328 49.6834 291.328 43.7939Z" fill="#455600"/>
<path d="M310.304 43.7939V26.1253C310.304 18.8767 307.572 15.8564 307.572 15.8564H312.278C316.984 15.8564 320.779 19.6317 320.779 24.3131V43.9449C320.779 47.8712 321.538 50.5895 322.298 52.2506V52.4016C322.753 53.3077 323.057 53.9118 323.36 54.0628L323.512 54.2138H307.572L307.875 53.9118C308.483 52.8547 310.304 49.6834 310.304 43.7939ZM309.849 5.58749C309.849 2.56723 312.43 0 315.466 0C318.502 0 321.083 2.56723 321.083 5.58749C321.083 8.60776 318.502 11.175 315.466 11.175C312.43 11.175 309.849 8.60776 309.849 5.58749Z" fill="#455600"/>
<path d="M343.248 54.9689C340.211 54.9689 336.416 53.7608 334.443 51.7976C332.469 49.8344 331.255 47.1162 331.255 44.0959V18.7257H324.878V15.8565C334.594 15.8565 341.578 6.79565 341.578 6.79565V15.8565H351.142C349.017 18.1217 346.132 18.7257 343.096 18.7257H341.578V46.8142C341.578 49.5324 343.703 51.7976 346.284 51.9486C350.079 52.0997 352.66 47.2672 353.571 44.549C353.571 44.549 354.178 54.9689 343.248 54.9689Z" fill="#455600"/>
<path d="M401.695 54.0627H394.56C391.827 54.0627 388.488 51.4955 388.488 49.3813C388.488 49.3813 384.237 54.9688 375.887 54.9688C362.376 54.9688 356.759 49.5324 356.759 42.8878C356.759 36.2432 363.439 30.8067 374.369 30.8067C385.755 30.8067 388.336 35.6391 388.336 35.6391C388.336 23.4071 384.237 17.9706 378.013 17.9706C368.297 17.9706 371.181 27.7864 371.181 27.7864H364.198C361.617 27.7864 359.947 25.2192 361.161 22.954C363.287 18.4236 369.056 15.1013 378.772 15.1013C390.461 15.1013 398.659 22.35 398.659 36.3942V48.6263C398.811 52.0996 401.695 54.0627 401.695 54.0627ZM388.488 42.8878C388.488 38.2064 385.907 33.2229 377.861 33.2229C371.485 33.2229 367.234 36.8472 367.234 42.8878C367.234 47.2672 371.636 52.0996 378.013 52.0996C385.451 52.0996 388.488 47.2672 388.488 42.8878Z" fill="#455600"/>
</svg>
