<svg width="1360" height="160" viewBox="0 0 1360 160" fill="none" xmlns="http://www.w3.org/2000/svg">
<rect width="1360" height="160" fill="#F9F6F2"/>
<g opacity="0.1">
<path d="M759.88 81.0677C759.278 83.1518 758.973 85.5347 757.924 87.4683C755.075 93.1212 750.299 95.9373 743.892 96.0664C738.826 96.1997 733.76 96.184 728.694 96.1683C718.861 96.1378 709.175 96.7037 699.779 99.6544C699.182 99.8016 698.288 99.7988 697.693 99.499C693.678 97.2517 689.811 95.0048 685.795 92.7575C685.796 92.4595 685.797 92.1615 685.798 91.8635C690.123 90.387 694.449 88.6125 698.923 87.2854C708.467 84.6332 718.154 83.9182 727.987 83.9487C733.202 83.9649 738.267 83.9806 743.483 83.8478C746.313 83.8565 747.808 82.3712 747.518 79.6885C747.375 77.7511 745.889 76.4056 743.655 76.3987C741.271 76.2423 738.887 76.3839 736.354 76.376C727.116 76.4964 717.878 76.6168 708.645 75.3962C700.602 74.3283 692.862 72.0695 685.126 68.3207C689.305 65.9498 693.037 63.5774 696.917 61.5036C697.962 60.9109 699.451 61.2135 700.642 61.5151C707.937 63.4746 715.532 64.3921 723.131 64.4157C730.431 64.4383 737.732 64.312 745.032 64.6326C752.63 64.9541 758.274 70.6333 759.294 78.0861C759.292 78.533 759.439 79.1295 759.587 79.5769C759.884 80.0248 759.882 80.4718 759.88 81.0677Z" fill="#282110"/>
<path d="M706.365 42.4622C709.195 42.7689 713.067 43.2279 717.232 45.4757C719.017 46.3752 720.206 47.2728 721.246 48.17C723.327 49.6664 726.596 52.5074 729.264 56.9854C729.561 57.4333 729.857 58.0302 730.301 59.0745C725.087 58.7603 720.171 58.5961 715.255 58.2829C714.808 58.2815 714.213 57.9817 713.767 57.6823C707.522 53.6402 701.116 53.4713 694.7 56.4313C691.119 58.0591 687.835 60.1348 684.699 62.36C672.306 70.9631 658.437 75.2409 643.385 76.2372C643.236 76.2367 643.087 76.2362 642.641 76.0859C643.251 71.618 644.455 67.5989 647.445 64.1814C647.894 63.7358 648.639 63.5891 649.236 63.442C659.819 61.9848 669.515 57.9921 678.325 51.9107C681.758 49.8355 690.116 45.0937 695.486 43.3224C697.573 42.7329 699.66 42.4414 699.66 42.4414C700.256 42.4432 702.641 42.1526 706.365 42.4622Z" fill="#282110"/>
<path d="M700.618 118.13C692.128 117.21 684.99 112.867 678.002 108.227C669.378 102.389 659.854 98.6348 649.429 97.2615C648.536 97.1098 647.494 96.6596 646.9 95.9128C644.229 92.6267 643.049 88.7492 642.467 84.2776C645.446 84.5849 648.127 84.8912 650.807 85.1974C664.062 87.0264 675.967 91.8311 686.819 99.6123C691.279 102.755 696.038 105.452 701.699 105.916C705.72 106.227 709.448 105.195 712.882 103.12C713.926 102.527 715.269 101.935 716.462 101.79C720.783 101.506 725.253 101.37 730.022 101.236C728.67 104.51 726.726 107.037 724.484 109.116C719.553 113.868 713.585 116.68 706.728 117.553C706.132 117.7 705.536 117.698 704.939 117.846C703.598 118.139 702.108 118.135 700.618 118.13Z" fill="#282110"/>
<path d="M600.022 78.3369C600.623 76.551 601.077 74.4666 601.976 72.8306C604.672 68.2204 608.703 65.4022 614.068 64.9719C616.303 64.8299 618.686 64.9862 620.921 64.9932C620.314 68.7159 619.856 72.2901 619.1 75.8634C619.099 76.1613 618.352 76.606 617.905 76.7536C617.16 76.9002 616.266 76.7485 615.521 76.8952C613.285 77.1862 611.94 78.5229 611.934 80.4596C611.928 82.5454 613.264 84.0394 615.498 84.1953C616.69 84.348 617.882 84.0537 618.925 84.0569C619.658 88.0818 620.241 92.1062 620.974 96.131C610.241 97.8855 601.765 92.7938 600.157 82.9559C600.157 82.8069 600.009 82.6574 599.86 82.508C600.014 81.0186 600.018 79.6778 600.022 78.3369Z" fill="#282110"/>
<path d="M674.611 47.7275C670.281 50.8429 665.804 53.0639 661.031 54.8371C660.434 55.1332 659.541 54.8324 658.796 54.8301C650.754 53.7623 643.74 57.4653 640.291 64.6063C635.193 74.8709 635.161 85.3003 640.344 95.5968C643.75 102.312 649.4 105.905 656.852 105.332C660.578 105.046 663.852 106.099 666.976 107.748C669.505 109.096 672.033 110.594 674.561 111.943C674.561 112.241 674.56 112.39 674.708 112.688C671.575 114.02 668.442 115.5 665.31 116.533C650.696 120.66 636.56 114.507 629.6 100.927C622.491 87.0489 622.535 72.8948 629.879 59.0613C637.821 44.1867 654.525 38.7257 670.148 45.7768C671.636 46.2284 672.975 46.9775 674.611 47.7275Z" fill="#282110"/>
<path d="M698.35 79.983C697.157 80.2773 695.666 80.7196 694.175 81.1619C689.849 82.7873 685.672 84.7112 681.346 86.3366C680.749 86.6327 679.855 86.7789 679.26 86.4791C673.607 83.6309 667.804 81.5271 661.7 80.0184C661.551 80.0179 661.253 79.868 661.252 80.166C667.219 77.8007 673.186 75.2865 679.302 72.9217C679.749 72.7741 680.494 72.7764 680.941 72.9268C686.893 75.329 692.696 77.5817 698.35 79.983Z" fill="#282110"/>
</g>
</svg>
