<svg width="42" height="42" viewBox="0 0 42 42" fill="none" xmlns="http://www.w3.org/2000/svg">
<rect width="42" height="42" rx="10" fill="#F9F6F2"/>
<path d="M20.9375 15.0098C17.8125 15.0098 15.3223 17.5488 15.3223 20.625C15.3223 23.75 17.8125 26.2402 20.9375 26.2402C24.0137 26.2402 26.5527 23.75 26.5527 20.625C26.5527 17.5488 24.0137 15.0098 20.9375 15.0098ZM20.9375 24.2871C18.9355 24.2871 17.2754 22.6758 17.2754 20.625C17.2754 18.623 18.8867 17.0117 20.9375 17.0117C22.9395 17.0117 24.5508 18.623 24.5508 20.625C24.5508 22.6758 22.9395 24.2871 20.9375 24.2871ZM28.0664 14.8145C28.0664 14.082 27.4805 13.4961 26.748 13.4961C26.0156 13.4961 25.4297 14.082 25.4297 14.8145C25.4297 15.5469 26.0156 16.1328 26.748 16.1328C27.4805 16.1328 28.0664 15.5469 28.0664 14.8145ZM31.7773 16.1328C31.6797 14.375 31.2891 12.8125 30.0195 11.543C28.75 10.2734 27.1875 9.88281 25.4297 9.78516C23.623 9.6875 18.2031 9.6875 16.3965 9.78516C14.6387 9.88281 13.125 10.2734 11.8066 11.543C10.5371 12.8125 10.1465 14.375 10.0488 16.1328C9.95117 17.9395 9.95117 23.3594 10.0488 25.166C10.1465 26.9238 10.5371 28.4375 11.8066 29.7559C13.125 31.0254 14.6387 31.416 16.3965 31.5137C18.2031 31.6113 23.623 31.6113 25.4297 31.5137C27.1875 31.416 28.75 31.0254 30.0195 29.7559C31.2891 28.4375 31.6797 26.9238 31.7773 25.166C31.875 23.3594 31.875 17.9395 31.7773 16.1328ZM29.4336 27.0703C29.0918 28.0469 28.3105 28.7793 27.3828 29.1699C25.918 29.7559 22.5 29.6094 20.9375 29.6094C19.3262 29.6094 15.9082 29.7559 14.4922 29.1699C13.5156 28.7793 12.7832 28.0469 12.3926 27.0703C11.8066 25.6543 11.9531 22.2363 11.9531 20.625C11.9531 19.0625 11.8066 15.6445 12.3926 14.1797C12.7832 13.252 13.5156 12.5195 14.4922 12.1289C15.9082 11.543 19.3262 11.6895 20.9375 11.6895C22.5 11.6895 25.918 11.543 27.3828 12.1289C28.3105 12.4707 29.043 13.252 29.4336 14.1797C30.0195 15.6445 29.873 19.0625 29.873 20.625C29.873 22.2363 30.0195 25.6543 29.4336 27.0703Z" fill="#2A3207"/>
</svg>
