<svg width="269" height="42" viewBox="0 0 269 42" fill="none" xmlns="http://www.w3.org/2000/svg">
<path d="M253.713 36.666C253.489 36.6909 253.426 36.7158 253.364 36.7532C251.084 38.323 248.543 38.485 245.802 37.2266C244.593 36.666 243.509 35.9309 242.463 35.2208C242.238 35.0713 242.014 34.9093 241.79 34.7598C237.878 32.1434 233.38 30.6359 228.06 30.1749C228.247 31.209 228.608 32.5172 229.456 33.6136C229.58 33.7755 229.667 33.8378 229.867 33.8627C233.642 34.3486 237.13 35.7067 240.531 38.024C242.562 39.4069 244.419 40.603 246.587 41.1387C246.923 41.2259 247.272 41.2882 247.708 41.3505C249.365 41.5872 251.595 41.525 253.078 41.4876C253.563 41.4751 253.975 41.4627 254.286 41.4627H260.677C260.416 41.201 260.179 40.9269 259.992 40.6902C259.332 39.8181 258.547 38.4102 258.435 36.5289C256.603 36.504 255.096 36.5414 253.713 36.666Z" fill="#455600"/>
<path d="M216.062 28.5059C216.062 32.0068 217.595 34.9471 220.485 37.0277C223.824 39.4198 228.808 40.6284 235.286 40.6284C237.143 40.6284 238.937 40.3543 240.644 39.8061C240.145 39.4946 239.634 39.1582 239.074 38.7595C238.874 38.6225 238.675 38.4979 238.488 38.3733C238.015 38.3982 237.068 38.4107 236.744 38.4107C229.854 38.4107 225.22 33.2901 225.22 28.5059C225.22 22.1768 229.705 18.0903 236.632 18.0903C236.981 18.0903 237.915 18.1027 238.389 18.1152C238.638 17.9657 238.887 17.8037 239.173 17.6168C239.485 17.405 239.834 17.1808 240.183 16.9565C238.289 16.5703 236.171 16.3709 233.878 16.3709C223.388 16.3834 216.062 21.3669 216.062 28.5059Z" fill="#455600"/>
<path d="M237.678 2.24274C241.491 2.24274 246.375 4.19878 248.106 13.4183C248.405 13.3934 248.704 13.381 248.979 13.3685C249.053 13.3685 249.141 13.3685 249.215 13.3685C252.617 13.3685 255.956 14.7764 258.273 17.1435C256.753 6.26695 249.626 0.062439 238.551 0.062439C229.456 0.062439 223.126 2.85322 220.709 7.89906C220.248 8.87086 220.311 9.99215 220.896 10.9016C221.469 11.8111 222.454 12.3593 223.525 12.3593H230.141C229.829 11.0013 229.281 7.42563 231.175 4.88402C232.471 3.12732 234.663 2.24274 237.678 2.24274Z" fill="#455600"/>
<path d="M244.306 33.0284C245.204 33.6264 246.051 34.187 246.96 34.648C247.396 34.8723 247.733 34.9096 248.206 34.7726C251.57 33.7884 254.946 33.6638 257.5 33.6638C258.236 33.6638 258.971 33.6762 259.681 33.6887C261.126 33.7136 262.671 33.7136 264.178 33.6638C266.521 33.5766 268.514 31.7825 268.925 29.4028C268.975 29.0914 269 28.7923 269 28.5183C269.012 25.6278 266.77 23.3354 263.879 23.2731C262.758 23.2482 261.612 23.2482 260.503 23.2357C260.129 23.2357 259.743 23.2357 259.369 23.2232H257.164C256.367 23.2108 255.731 23.1859 255.133 23.1485C252.442 23.0114 250.038 22.5878 247.807 21.8652C247.708 21.8278 247.608 21.8652 247.209 22.0396C246.213 22.4882 245.303 23.0737 244.344 23.7091C244.169 23.8213 244.007 23.9334 243.846 24.0206C245.154 24.6311 246.537 25.1294 248.044 25.5281C250.847 26.2632 253.962 26.637 257.862 26.6868C259.755 26.7117 261.674 26.7117 263.531 26.7117C263.967 26.7117 264.602 26.7616 265.075 27.235C265.387 27.5465 265.549 27.9701 265.549 28.4933V28.5183C265.524 28.9294 265.325 30.2625 263.543 30.2625C263.531 30.2625 263.506 30.2625 263.493 30.2625H263.393C261.35 30.2376 259.245 30.2251 257.189 30.2127C251.869 30.2002 247.583 30.9851 243.796 32.6795C243.945 32.7792 244.082 32.8664 244.232 32.9661L244.306 33.0284Z" fill="#455600"/>
<path d="M240.606 18.6633C238.962 19.7348 237.392 20.5695 235.797 21.2049C233.866 21.9774 231.935 22.4633 229.892 22.6875C229.705 22.7124 229.618 22.7747 229.493 22.9242C228.633 24.0206 228.272 25.279 228.06 26.3504C233.393 25.9393 237.903 24.4941 241.84 21.94C241.952 21.8652 242.064 21.7905 242.176 21.7157C242.288 21.641 242.4 21.5662 242.525 21.4915C243.086 21.1177 243.684 20.7315 244.319 20.3453C244.743 20.0961 245.291 19.7971 245.876 19.523C248.63 18.302 251.171 18.4889 253.439 20.0961C253.489 20.1335 253.563 20.1708 253.788 20.1958C255.096 20.3203 256.541 20.3826 258.211 20.3951C256.417 17.2679 252.853 15.3243 249.141 15.3243C248.331 15.3243 247.521 15.4116 246.711 15.6109C244.556 16.1342 242.674 17.3053 240.606 18.6633Z" fill="#455600"/>
<path d="M241.005 25.9767C238.85 27.098 236.545 27.9452 234.065 28.5183C236.557 29.1163 238.85 29.9884 240.992 31.1347L241.977 30.6612C243.833 29.7642 245.777 29.0789 247.882 28.6055C247.645 28.5557 247.409 28.4934 247.184 28.4311C245.316 27.9327 243.621 27.2973 242.002 26.4875L241.005 25.9767Z" fill="#455600"/>
<path d="M20.6954 32.5879H17.4093C16.1508 32.5879 14.6126 31.4203 14.6126 30.4588C14.6126 30.4588 12.655 33 8.80952 33C2.58692 33 0 30.5275 0 27.5055C0 24.4835 3.07634 22.011 8.11036 22.011C13.3541 22.011 14.5427 24.2088 14.5427 24.2088C14.5427 18.6456 12.655 16.1731 9.78836 16.1731C5.31368 16.1731 6.6421 20.6374 6.6421 20.6374H3.49584C2.30726 20.6374 1.53817 19.4698 2.09751 18.4396C3.07634 16.3791 5.73318 14.8681 10.2079 14.8681C15.5915 14.8681 19.367 18.1648 19.367 24.5522V30.1154C19.367 31.6951 20.6954 32.5879 20.6954 32.5879ZM14.6126 27.5055C14.6126 25.3764 13.424 23.1099 9.71844 23.1099C6.78193 23.1099 4.82426 24.7582 4.82426 27.5055C4.82426 29.4973 6.85185 31.6951 9.78836 31.6951C13.2143 31.6951 14.6126 29.4973 14.6126 27.5055Z" fill="#455600"/>
<path d="M47.6833 27.9176V22.8352C47.6833 18.3709 46.8443 16.1044 44.9565 16.1044C41.8103 16.1044 40.6217 18.1648 40.4818 22.4231V27.9176C40.4818 29.7033 40.8314 30.9395 41.181 31.695V31.7637C41.3908 32.1758 41.5306 32.4505 41.6704 32.5192L41.7403 32.5879H34.3991L34.5389 32.4505C34.8186 32.0384 35.6576 30.5961 35.6576 27.9176V22.8352C35.6576 18.3709 34.8186 16.1044 32.9308 16.1044C29.6447 16.1044 28.4561 18.3709 28.4561 22.8352V27.9176C28.4561 29.7033 28.8057 30.9395 29.1553 31.695V31.7637C29.3651 32.1758 29.5049 32.4505 29.6447 32.5192L29.7146 32.5879H22.4433L22.5831 32.4505C22.9327 32.0384 23.7717 30.5961 23.7717 27.9176V19.8819C23.7717 18.3022 23.4221 17.1346 23.1425 16.3791C22.8628 15.6923 22.5831 15.3489 22.5132 15.2115C25.0302 16.3104 27.8968 16.3791 30.4138 15.2802C31.1829 14.9368 32.4414 14.7994 33.4901 14.7994C36.147 14.7994 37.8949 16.0357 38.9437 18.0275C39.9924 16.3791 42.1598 14.7994 44.9565 14.7994C50.3401 14.7994 52.5774 18.8516 52.5774 23.8654V27.9176C52.5774 29.7033 52.927 30.9395 53.2766 31.695V31.7637C53.4864 32.1758 53.6262 32.4505 53.766 32.5192L53.836 32.5879H46.3549L46.4947 32.4505C46.8443 32.0384 47.6833 30.5961 47.6833 27.9176Z" fill="#455600"/>
<path d="M76.0695 32.5879H72.7835C71.525 32.5879 69.9868 31.4203 69.9868 30.4588C69.9868 30.4588 68.0291 33 64.1837 33C57.9611 33 55.3742 30.5275 55.3742 27.5055C55.3742 24.4835 58.4505 22.011 63.4845 22.011C68.7283 22.011 69.9169 24.2088 69.9169 24.2088C69.9169 18.6456 68.0291 16.1731 65.1625 16.1731C60.6878 16.1731 62.0163 20.6374 62.0163 20.6374H58.8001C57.6115 20.6374 56.8424 19.4698 57.4018 18.4396C58.3806 16.3791 61.0374 14.8681 65.5121 14.8681C70.8957 14.8681 74.6712 18.1648 74.6712 24.5522V30.1154C74.811 31.6951 76.0695 32.5879 76.0695 32.5879ZM69.9868 27.5055C69.9868 25.3764 68.7982 23.1099 65.0926 23.1099C62.1561 23.1099 60.1984 24.7582 60.1984 27.5055C60.1984 29.4973 62.226 31.6951 65.1625 31.6951C68.6584 31.6951 69.9868 29.4973 69.9868 27.5055Z" fill="#455600"/>
<path d="M95.1568 29.0852V32.6566H77.9573V28.5357L91.8008 16.5852H82.0125C80.5442 16.5852 79.2158 17.9588 78.0272 18.8517C77.9573 18.9203 77.9573 18.8517 77.9573 18.783V15.2115H95.0869V19.3324L81.3133 31.283H91.9407C93.1992 31.283 94.3878 30.0467 95.1568 29.0852Z" fill="#455600"/>
<path d="M116.971 23.9341C116.971 28.9478 113.825 33 107.113 33C100.401 33 97.1844 28.9478 97.1844 23.9341C97.1844 18.9203 100.331 14.8681 107.043 14.8681C113.825 14.7994 116.971 18.9203 116.971 23.9341ZM111.867 22.217C110.748 19.1264 108.301 15.2115 104.386 16.6538C100.471 18.0275 101.17 22.5604 102.288 25.6511C103.407 28.7418 105.854 32.5879 109.769 31.2143C113.685 29.772 113.056 25.3077 111.867 22.217Z" fill="#455600"/>
<path d="M134.17 27.9176V22.8352C134.17 18.3709 133.052 16.1044 130.115 16.1044C126.34 16.1044 125.221 18.3709 125.221 22.8352V27.9176C125.221 29.7033 125.571 30.9395 125.92 31.695V31.7637C126.13 32.1758 126.27 32.4505 126.41 32.5192L126.48 32.5879H119.138L119.278 32.4505C119.628 32.0384 120.467 30.5961 120.467 27.9176V19.8819C120.467 18.3022 120.117 17.1346 119.838 16.3791C119.558 15.6923 119.278 15.3489 119.208 15.2115C121.725 16.3104 124.592 16.3791 127.109 15.2802C127.878 14.9368 129.136 14.7994 130.185 14.7994C136.408 14.7994 138.575 18.8516 138.575 23.8654V27.9176C138.575 29.7033 138.925 30.9395 139.274 31.695V31.7637C139.484 32.1758 139.624 32.4505 139.764 32.5192L139.834 32.5879H132.842L132.982 32.4505C133.331 32.0384 134.17 30.5961 134.17 27.9176Z" fill="#455600"/>
<path d="M142.91 27.9176V19.8819C142.91 16.5852 141.652 15.2115 141.652 15.2115H143.819C145.986 15.2115 147.734 16.9286 147.734 19.0577V27.9863C147.734 29.772 148.084 31.0082 148.433 31.7637V31.8324C148.643 32.2445 148.783 32.5192 148.923 32.5879L148.993 32.6566H141.652L141.791 32.5192C142.071 32.0385 142.91 30.5962 142.91 27.9176ZM142.7 10.5412C142.7 9.16758 143.889 8 145.287 8C146.686 8 147.874 9.16758 147.874 10.5412C147.874 11.9148 146.686 13.0824 145.287 13.0824C143.889 13.0824 142.7 11.9148 142.7 10.5412Z" fill="#455600"/>
<path d="M158.082 33C156.684 33 154.936 32.4506 154.027 31.5577C153.118 30.6648 152.559 29.4286 152.559 28.055V16.5165H149.622V15.2115C154.097 15.2115 157.313 11.0907 157.313 11.0907V15.2115H161.718C160.739 16.2418 159.41 16.5165 158.012 16.5165H157.313V29.2912C157.313 30.5275 158.292 31.5577 159.48 31.6264C161.228 31.6951 162.417 29.4973 162.836 28.261C162.836 28.261 163.116 33 158.082 33Z" fill="#455600"/>
<path d="M185 32.5879H181.714C180.455 32.5879 178.917 31.4203 178.917 30.4588C178.917 30.4588 176.96 33 173.114 33C166.892 33 164.305 30.5275 164.305 27.5055C164.305 24.4835 167.381 22.011 172.415 22.011C177.659 22.011 178.847 24.2088 178.847 24.2088C178.847 18.6456 176.96 16.1731 174.093 16.1731C169.618 16.1731 170.947 20.6374 170.947 20.6374H167.731C166.542 20.6374 165.773 19.4698 166.332 18.4396C167.311 16.3791 169.968 14.8681 174.443 14.8681C179.826 14.8681 183.602 18.1648 183.602 24.5522V30.1154C183.672 31.6951 185 32.5879 185 32.5879ZM178.917 27.5055C178.917 25.3764 177.729 23.1099 174.023 23.1099C171.087 23.1099 169.129 24.7582 169.129 27.5055C169.129 29.4973 171.156 31.6951 174.093 31.6951C177.519 31.6951 178.917 29.4973 178.917 27.5055Z" fill="#455600"/>
</svg>
