<svg width="265" height="122" viewBox="0 0 265 122" fill="none" xmlns="http://www.w3.org/2000/svg">
<path d="M151.468 64.623C151.073 64.6669 150.963 64.7108 150.853 64.7767C146.835 67.5434 142.356 67.8289 137.525 65.6111C135.395 64.623 133.484 63.3274 131.64 62.0758C131.245 61.8123 130.849 61.5268 130.454 61.2633C123.559 56.6521 115.632 53.9951 106.256 53.1826C106.585 55.0052 107.222 57.3108 108.715 59.2431C108.935 59.5286 109.088 59.6384 109.44 59.6823C116.093 60.5387 122.242 62.9322 128.236 67.0164C131.815 69.4538 135.087 71.5618 138.908 72.5061C139.501 72.6598 140.116 72.7695 140.884 72.8793C143.805 73.2965 147.735 73.1868 150.348 73.1209C151.205 73.0989 151.929 73.077 152.478 73.077H163.743C163.282 72.6158 162.865 72.1328 162.535 71.7155C161.372 70.1785 159.988 67.6972 159.791 64.3814C156.563 64.3375 153.906 64.4034 151.468 64.623Z" fill="#F9F6F2"/>
<path d="M85.1099 50.2409C85.1099 56.4112 87.8108 61.5934 92.9051 65.2605C98.79 69.4765 107.573 71.6065 118.992 71.6065C122.264 71.6065 125.426 71.1234 128.434 70.1572C127.556 69.6083 126.655 69.0154 125.667 68.3127C125.316 68.0712 124.964 67.8516 124.635 67.632C123.801 67.6759 122.132 67.6979 121.561 67.6979C109.418 67.6979 101.249 58.673 101.249 50.2409C101.249 39.086 109.154 31.8837 121.363 31.8837C121.978 31.8837 123.625 31.9056 124.459 31.9276C124.899 31.6641 125.338 31.3786 125.843 31.0492C126.392 30.6759 127.007 30.2807 127.621 29.8854C124.284 29.2047 120.551 28.8534 116.51 28.8534C98.0214 28.8754 85.1099 37.6587 85.1099 50.2409Z" fill="#F9F6F2"/>
<path d="M123.207 3.95271C129.927 3.95271 138.534 7.40019 141.587 23.6494C142.114 23.6055 142.641 23.5836 143.124 23.5616C143.255 23.5616 143.409 23.5616 143.541 23.5616C149.536 23.5616 155.42 26.0429 159.505 30.215C156.826 11.0453 144.266 0.109985 124.744 0.109985C108.715 0.109985 97.5599 5.02868 93.3 13.9218C92.4875 15.6346 92.5973 17.6109 93.6294 19.2138C94.6395 20.8168 96.3742 21.783 98.2626 21.783H109.923C109.374 19.3895 108.407 13.0874 111.745 8.6079C114.029 5.51176 117.893 3.95271 123.207 3.95271Z" fill="#F9F6F2"/>
<path d="M134.89 58.2118C136.471 59.2658 137.964 60.2539 139.567 61.0664C140.335 61.4616 140.928 61.5275 141.763 61.286C147.691 59.5512 153.642 59.3317 158.144 59.3317C159.439 59.3317 160.735 59.3536 161.986 59.3756C164.533 59.4195 167.256 59.4195 169.913 59.3317C174.041 59.1779 177.555 56.0159 178.279 51.8219C178.367 51.2729 178.411 50.7459 178.411 50.2628C178.433 45.1685 174.481 41.1281 169.386 41.0183C167.41 40.9744 165.39 40.9744 163.436 40.9524C162.777 40.9524 162.096 40.9524 161.437 40.9305H157.551C156.145 40.9085 155.025 40.8646 153.971 40.7987C149.228 40.5572 144.99 39.8106 141.06 38.537C140.884 38.4711 140.709 38.537 140.006 38.8444C138.249 39.6349 136.646 40.667 134.955 41.7869C134.648 41.9845 134.363 42.1821 134.077 42.3358C136.383 43.4118 138.82 44.2901 141.477 44.9928C146.418 46.2883 151.907 46.9471 158.78 47.0349C162.118 47.0788 165.5 47.0788 168.771 47.0788C169.54 47.0788 170.66 47.1667 171.494 48.0011C172.043 48.5501 172.329 49.2966 172.329 50.2189V50.2628C172.285 50.9874 171.933 53.337 168.793 53.337C168.771 53.337 168.728 53.337 168.706 53.337H168.53C164.929 53.2931 161.218 53.2711 157.595 53.2492C148.218 53.2272 140.665 54.6106 133.989 57.5969C134.253 57.7726 134.494 57.9263 134.758 58.102L134.89 58.2118Z" fill="#F9F6F2"/>
<path d="M128.368 32.8937C125.469 34.7821 122.703 36.2533 119.892 37.3732C116.488 38.7346 113.085 39.591 109.484 39.9862C109.154 40.0301 109.001 40.1399 108.781 40.4034C107.266 42.3358 106.629 44.5536 106.256 46.442C115.654 45.7174 123.603 43.1702 130.542 38.6687C130.74 38.537 130.937 38.4052 131.135 38.2735C131.332 38.1417 131.53 38.01 131.75 37.8782C132.738 37.2195 133.792 36.5388 134.912 35.858C135.658 35.4189 136.624 34.8919 137.656 34.4088C142.509 32.2569 146.989 32.5862 150.985 35.4189C151.073 35.4847 151.205 35.5506 151.6 35.5945C153.906 35.8141 156.453 35.9239 159.395 35.9459C156.233 30.4343 149.953 27.0088 143.41 27.0088C141.982 27.0088 140.555 27.1625 139.128 27.5138C135.329 28.4361 132.013 30.5002 128.368 32.8937Z" fill="#F9F6F2"/>
<path d="M129.071 45.7832C125.272 47.7595 121.21 49.2526 116.84 50.2627C121.232 51.3167 125.272 52.8538 129.049 54.874L130.783 54.0396C134.055 52.4586 137.481 51.2509 141.192 50.4164C140.775 50.3286 140.357 50.2188 139.962 50.109C136.668 49.2307 133.682 48.1108 130.827 46.6835L129.071 45.7832Z" fill="#F9F6F2"/>
<g clip-path="url(#clip0_456_2)">
<path d="M29.6 120.8H24.9C23.1 120.8 20.9 119.1 20.9 117.7C20.9 117.7 18.1 121.4 12.6 121.4C3.7 121.4 0 117.8 0 113.4C0 109 4.4 105.4 11.6 105.4C19.1 105.4 20.8 108.6 20.8 108.6C20.8 100.5 18.1 96.9 14 96.9C7.6 96.9 9.5 103.4 9.5 103.4H5C3.3 103.4 2.2 101.7 3 100.2C4.4 97.2 8.2 95 14.6 95C22.3 95 27.7 99.8 27.7 109.1V117.2C27.7 119.5 29.6 120.8 29.6 120.8ZM20.9 113.4C20.9 110.3 19.2 107 13.9 107C9.7 107 6.9 109.4 6.9 113.4C6.9 116.3 9.8 119.5 14 119.5C18.9 119.5 20.9 116.3 20.9 113.4Z" fill="#F9F6F2"/>
<path d="M68.2001 114V106.6C68.2001 100.1 67.0001 96.8 64.3001 96.8C59.8001 96.8 58.1001 99.8 57.9001 106V114C57.9001 116.6 58.4001 118.4 58.9001 119.5V119.6C59.2001 120.2 59.4001 120.6 59.6001 120.7L59.7001 120.8H49.2001L49.4001 120.6C49.8001 120 51.0001 117.9 51.0001 114V106.6C51.0001 100.1 49.8001 96.8 47.1001 96.8C42.4001 96.8 40.7001 100.1 40.7001 106.6V114C40.7001 116.6 41.2001 118.4 41.7001 119.5V119.6C42.0001 120.2 42.2001 120.6 42.4001 120.7L42.5001 120.8H32.1001L32.3001 120.6C32.8001 120 34.0001 117.9 34.0001 114V102.3C34.0001 100 33.5001 98.3 33.1001 97.2C32.7001 96.2 32.3001 95.7 32.2001 95.5C35.8001 97.1 39.9001 97.2 43.5001 95.6C44.6001 95.1 46.4001 94.9 47.9001 94.9C51.7001 94.9 54.2001 96.7 55.7001 99.6C57.2001 97.2 60.3001 94.9 64.3001 94.9C72.0001 94.9 75.2001 100.8 75.2001 108.1V114C75.2001 116.6 75.7001 118.4 76.2001 119.5V119.6C76.5001 120.2 76.7001 120.6 76.9001 120.7L77.0001 120.8H66.3001L66.5001 120.6C67.0001 120 68.2001 117.9 68.2001 114Z" fill="#F9F6F2"/>
<path d="M108.8 120.8H104.1C102.3 120.8 100.1 119.1 100.1 117.7C100.1 117.7 97.3002 121.4 91.8002 121.4C82.9002 121.4 79.2002 117.8 79.2002 113.4C79.2002 109 83.6002 105.4 90.8002 105.4C98.3002 105.4 100 108.6 100 108.6C100 100.5 97.3002 96.9 93.2002 96.9C86.8002 96.9 88.7002 103.4 88.7002 103.4H84.1002C82.4002 103.4 81.3002 101.7 82.1002 100.2C83.5002 97.2 87.3002 95 93.7002 95C101.4 95 106.8 99.8 106.8 109.1V117.2C107 119.5 108.8 120.8 108.8 120.8ZM100.1 113.4C100.1 110.3 98.4002 107 93.1002 107C88.9002 107 86.1002 109.4 86.1002 113.4C86.1002 116.3 89.0002 119.5 93.2002 119.5C98.2002 119.5 100.1 116.3 100.1 113.4Z" fill="#F9F6F2"/>
<path d="M136.1 115.7V120.9H111.5V114.9L131.3 97.5H117.3C115.2 97.5 113.3 99.5 111.6 100.8C111.5 100.9 111.5 100.8 111.5 100.7V95.5H136V101.5L116.3 118.9H131.5C133.3 118.9 135 117.1 136.1 115.7Z" fill="#F9F6F2"/>
<path d="M167.3 108.2C167.3 115.5 162.8 121.4 153.2 121.4C143.6 121.4 139 115.5 139 108.2C139 100.9 143.5 95 153.1 95C162.8 94.9 167.3 100.9 167.3 108.2ZM160 105.7C158.4 101.2 154.9 95.5 149.3 97.6C143.7 99.6 144.7 106.2 146.3 110.7C147.9 115.2 151.4 120.8 157 118.8C162.6 116.7 161.7 110.2 160 105.7Z" fill="#F9F6F2"/>
<path d="M191.9 114V106.6C191.9 100.1 190.3 96.8 186.1 96.8C180.7 96.8 179.1 100.1 179.1 106.6V114C179.1 116.6 179.6 118.4 180.1 119.5V119.6C180.4 120.2 180.6 120.6 180.8 120.7L180.9 120.8H170.4L170.6 120.6C171.1 120 172.3 117.9 172.3 114V102.3C172.3 100 171.8 98.3 171.4 97.2C171 96.2 170.6 95.7 170.5 95.5C174.1 97.1 178.2 97.2 181.8 95.6C182.9 95.1 184.7 94.9 186.2 94.9C195.1 94.9 198.2 100.8 198.2 108.1V114C198.2 116.6 198.7 118.4 199.2 119.5V119.6C199.5 120.2 199.7 120.6 199.9 120.7L200 120.8H190L190.2 120.6C190.7 120 191.9 117.9 191.9 114Z" fill="#F9F6F2"/>
<path d="M204.4 114V102.3C204.4 97.5 202.6 95.5 202.6 95.5H205.7C208.8 95.5 211.3 98 211.3 101.1V114.1C211.3 116.7 211.8 118.5 212.3 119.6V119.7C212.6 120.3 212.8 120.7 213 120.8L213.1 120.9H202.6L202.8 120.7C203.2 120 204.4 117.9 204.4 114ZM204.1 88.7C204.1 86.7 205.8 85 207.8 85C209.8 85 211.5 86.7 211.5 88.7C211.5 90.7 209.8 92.4 207.8 92.4C205.8 92.4 204.1 90.7 204.1 88.7Z" fill="#F9F6F2"/>
<path d="M226.1 121.4C224.1 121.4 221.6 120.6 220.3 119.3C219 118 218.2 116.2 218.2 114.2V97.4H214V95.5C220.4 95.5 225 89.5 225 89.5V95.5H231.3C229.9 97 228 97.4 226 97.4H225V116C225 117.8 226.4 119.3 228.1 119.4C230.6 119.5 232.3 116.3 232.9 114.5C232.9 114.5 233.3 121.4 226.1 121.4Z" fill="#F9F6F2"/>
<path d="M264.6 120.8H259.9C258.1 120.8 255.9 119.1 255.9 117.7C255.9 117.7 253.1 121.4 247.6 121.4C238.7 121.4 235 117.8 235 113.4C235 109 239.4 105.4 246.6 105.4C254.1 105.4 255.8 108.6 255.8 108.6C255.8 100.5 253.1 96.9 249 96.9C242.6 96.9 244.5 103.4 244.5 103.4H239.9C238.2 103.4 237.1 101.7 237.9 100.2C239.3 97.2 243.1 95 249.5 95C257.2 95 262.6 99.8 262.6 109.1V117.2C262.7 119.5 264.6 120.8 264.6 120.8ZM255.9 113.4C255.9 110.3 254.2 107 248.9 107C244.7 107 241.9 109.4 241.9 113.4C241.9 116.3 244.8 119.5 249 119.5C253.9 119.5 255.9 116.3 255.9 113.4Z" fill="#F9F6F2"/>
</g>
<defs>
<clipPath id="clip0_456_2">
<rect width="264.6" height="36.4" fill="white" transform="translate(0 85)"/>
</clipPath>
</defs>
</svg>
