<svg width="185" height="25" viewBox="0 0 185 25" fill="none" xmlns="http://www.w3.org/2000/svg">
<path d="M20.6954 24.5879H17.4093C16.1508 24.5879 14.6126 23.4203 14.6126 22.4588C14.6126 22.4588 12.655 25 8.80952 25C2.58692 25 0 22.5275 0 19.5055C0 16.4835 3.07634 14.011 8.11036 14.011C13.3541 14.011 14.5427 16.2088 14.5427 16.2088C14.5427 10.6456 12.655 8.17308 9.78836 8.17308C5.31368 8.17308 6.6421 12.6374 6.6421 12.6374H3.49584C2.30726 12.6374 1.53817 11.4698 2.09751 10.4396C3.07634 8.37912 5.73318 6.86813 10.2079 6.86813C15.5915 6.86813 19.367 10.1648 19.367 16.5522V22.1154C19.367 23.6951 20.6954 24.5879 20.6954 24.5879ZM14.6126 19.5055C14.6126 17.3764 13.424 15.1099 9.71844 15.1099C6.78193 15.1099 4.82426 16.7582 4.82426 19.5055C4.82426 21.4973 6.85185 23.6951 9.78836 23.6951C13.2143 23.6951 14.6126 21.4973 14.6126 19.5055Z" fill="#282110"/>
<path d="M47.6832 19.9176V14.8352C47.6832 10.3709 46.8442 8.10438 44.9565 8.10438C41.8102 8.10438 40.6216 10.1648 40.4818 14.4231V19.9176C40.4818 21.7033 40.8314 22.9395 41.181 23.695V23.7637C41.3907 24.1758 41.5305 24.4505 41.6704 24.5192L41.7403 24.5879H34.399L34.5389 24.4505C34.8185 24.0384 35.6575 22.5961 35.6575 19.9176V14.8352C35.6575 10.3709 34.8185 8.10438 32.9308 8.10438C29.6447 8.10438 28.4561 10.3709 28.4561 14.8352V19.9176C28.4561 21.7033 28.8057 22.9395 29.1553 23.695V23.7637C29.365 24.1758 29.5048 24.4505 29.6447 24.5192L29.7146 24.5879H22.4432L22.5831 24.4505C22.9327 24.0384 23.7717 22.5961 23.7717 19.9176V11.8819C23.7717 10.3022 23.4221 9.1346 23.1424 8.37911C22.8627 7.6923 22.5831 7.34889 22.5132 7.21153C25.0302 8.31043 27.8968 8.37911 30.4138 7.28021C31.1828 6.9368 32.4413 6.79944 33.4901 6.79944C36.1469 6.79944 37.8949 8.0357 38.9436 10.0275C39.9924 8.37911 42.1598 6.79944 44.9565 6.79944C50.3401 6.79944 52.5774 10.8516 52.5774 15.8654V19.9176C52.5774 21.7033 52.927 22.9395 53.2766 23.695V23.7637C53.4863 24.1758 53.6262 24.4505 53.766 24.5192L53.8359 24.5879H46.3548L46.4946 24.4505C46.8442 24.0384 47.6832 22.5961 47.6832 19.9176Z" fill="#282110"/>
<path d="M76.0695 24.5879H72.7834C71.5249 24.5879 69.9868 23.4203 69.9868 22.4588C69.9868 22.4588 68.0291 25 64.1837 25C57.9611 25 55.3741 22.5275 55.3741 19.5055C55.3741 16.4835 58.4505 14.011 63.4845 14.011C68.7283 14.011 69.9169 16.2088 69.9169 16.2088C69.9169 10.6456 68.0291 8.17308 65.1625 8.17308C60.6878 8.17308 62.0162 12.6374 62.0162 12.6374H58.8001C57.6115 12.6374 56.8424 11.4698 57.4017 10.4396C58.3806 8.37912 61.0374 6.86813 65.5121 6.86813C70.8957 6.86813 74.6712 10.1648 74.6712 16.5522V22.1154C74.811 23.6951 76.0695 24.5879 76.0695 24.5879ZM69.9868 19.5055C69.9868 17.3764 68.7982 15.1099 65.0926 15.1099C62.1561 15.1099 60.1984 16.7582 60.1984 19.5055C60.1984 21.4973 62.226 23.6951 65.1625 23.6951C68.6583 23.6951 69.9868 21.4973 69.9868 19.5055Z" fill="#282110"/>
<path d="M95.1568 21.0852V24.6566H77.9573V20.5357L91.8008 8.58517H82.0125C80.5442 8.58517 79.2158 9.9588 78.0272 10.8517C77.9573 10.9203 77.9573 10.8517 77.9573 10.783V7.21155H95.0869V11.3324L81.3133 23.283H91.9406C93.1992 23.283 94.3877 22.0467 95.1568 21.0852Z" fill="#282110"/>
<path d="M116.971 15.9341C116.971 20.9478 113.825 25 107.113 25C100.401 25 97.1844 20.9478 97.1844 15.9341C97.1844 10.9203 100.331 6.86813 107.043 6.86813C113.825 6.79944 116.971 10.9203 116.971 15.9341ZM111.867 14.217C110.748 11.1264 108.301 7.21153 104.386 8.65384C100.471 10.0275 101.17 14.5604 102.288 17.6511C103.407 20.7418 105.854 24.5879 109.769 23.2143C113.685 21.772 113.056 17.3077 111.867 14.217Z" fill="#282110"/>
<path d="M134.17 19.9176V14.8352C134.17 10.3709 133.052 8.10438 130.115 8.10438C126.34 8.10438 125.221 10.3709 125.221 14.8352V19.9176C125.221 21.7033 125.571 22.9395 125.92 23.695V23.7637C126.13 24.1758 126.27 24.4505 126.41 24.5192L126.48 24.5879H119.138L119.278 24.4505C119.628 24.0384 120.467 22.5961 120.467 19.9176V11.8819C120.467 10.3022 120.117 9.1346 119.837 8.37911C119.558 7.6923 119.278 7.34889 119.208 7.21153C121.725 8.31043 124.592 8.37911 127.109 7.28021C127.878 6.9368 129.136 6.79944 130.185 6.79944C136.408 6.79944 138.575 10.8516 138.575 15.8654V19.9176C138.575 21.7033 138.925 22.9395 139.274 23.695V23.7637C139.484 24.1758 139.624 24.4505 139.764 24.5192L139.834 24.5879H132.842L132.982 24.4505C133.331 24.0384 134.17 22.5961 134.17 19.9176Z" fill="#282110"/>
<path d="M142.91 19.9176V11.8819C142.91 8.58516 141.651 7.21154 141.651 7.21154H143.819C145.986 7.21154 147.734 8.92857 147.734 11.0577V19.9863C147.734 21.772 148.084 23.0082 148.433 23.7637V23.8324C148.643 24.2445 148.783 24.5192 148.923 24.5879L148.993 24.6566H141.651L141.791 24.5192C142.071 24.0385 142.91 22.5962 142.91 19.9176ZM142.7 2.54121C142.7 1.16758 143.889 0 145.287 0C146.686 0 147.874 1.16758 147.874 2.54121C147.874 3.91484 146.686 5.08242 145.287 5.08242C143.889 5.08242 142.7 3.91484 142.7 2.54121Z" fill="#282110"/>
<path d="M158.082 25C156.684 25 154.936 24.4506 154.027 23.5577C153.118 22.6648 152.559 21.4286 152.559 20.055V8.51649H149.622V7.21155C154.097 7.21155 157.313 3.09067 157.313 3.09067V7.21155H161.718C160.739 8.24177 159.41 8.51649 158.012 8.51649H157.313V21.2912C157.313 22.5275 158.292 23.5577 159.48 23.6264C161.228 23.6951 162.417 21.4973 162.836 20.261C162.836 20.261 163.116 25 158.082 25Z" fill="#282110"/>
<path d="M185 24.5879H181.714C180.455 24.5879 178.917 23.4203 178.917 22.4588C178.917 22.4588 176.96 25 173.114 25C166.891 25 164.305 22.5275 164.305 19.5055C164.305 16.4835 167.381 14.011 172.415 14.011C177.659 14.011 178.847 16.2088 178.847 16.2088C178.847 10.6456 176.96 8.17308 174.093 8.17308C169.618 8.17308 170.947 12.6374 170.947 12.6374H167.73C166.542 12.6374 165.773 11.4698 166.332 10.4396C167.311 8.37912 169.968 6.86813 174.443 6.86813C179.826 6.86813 183.602 10.1648 183.602 16.5522V22.1154C183.672 23.6951 185 24.5879 185 24.5879ZM178.917 19.5055C178.917 17.3764 177.729 15.1099 174.023 15.1099C171.086 15.1099 169.129 16.7582 169.129 19.5055C169.129 21.4973 171.156 23.6951 174.093 23.6951C177.519 23.6951 178.917 21.4973 178.917 19.5055Z" fill="#282110"/>
</svg>
