<svg width="39" height="39" viewBox="0 0 39 39" fill="none" xmlns="http://www.w3.org/2000/svg">
<circle cx="19.5" cy="19.5" r="19.5" fill="#8C6100"/>
<path d="M19.3816 26.38C18.2483 26.38 17.2616 26.1733 16.4216 25.76C15.595 25.3333 14.9616 24.76 14.5216 24.04C14.0816 23.32 13.8616 22.5067 13.8616 21.6H17.0216C17.0216 22.2133 17.2283 22.7133 17.6416 23.1C18.055 23.4733 18.635 23.66 19.3816 23.66C19.875 23.66 20.295 23.5667 20.6416 23.38C20.9883 23.1933 21.255 22.94 21.4416 22.62C21.6283 22.2867 21.7216 21.9133 21.7216 21.5C21.7216 20.86 21.515 20.3333 21.1016 19.92C20.7016 19.5067 20.1283 19.3 19.3816 19.3C18.9816 19.3 18.6283 19.36 18.3216 19.48C18.0283 19.6 17.775 19.7467 17.5616 19.92L16.0816 17.42L20.5016 14.54L20.3216 14.2H14.4616V11.4H24.3016V14.44L19.2016 17.68L17.6016 17.24C17.8683 17.16 18.1483 17.1 18.4416 17.06C18.7483 17.0067 19.075 16.98 19.4216 16.98C20.555 16.98 21.5283 17.1667 22.3416 17.54C23.155 17.9133 23.7816 18.44 24.2216 19.12C24.675 19.7867 24.9016 20.5667 24.9016 21.46V21.7C24.9016 22.5933 24.675 23.3933 24.2216 24.1C23.7816 24.8067 23.1483 25.3667 22.3216 25.78C21.5083 26.18 20.5283 26.38 19.3816 26.38Z" fill="white"/>
</svg>
