<svg width="39" height="39" viewBox="0 0 39 39" fill="none" xmlns="http://www.w3.org/2000/svg">
<circle cx="19.5" cy="19.5" r="19.5" fill="#8C6100"/>
<path d="M14.3816 26V23C14.3816 22.3733 14.4816 21.8267 14.6816 21.36C14.895 20.8933 15.2283 20.48 15.6816 20.12C16.135 19.7467 16.735 19.4 17.4816 19.08L19.8416 18.06C20.4416 17.8067 20.8816 17.4933 21.1616 17.12C21.455 16.7467 21.6016 16.2733 21.6016 15.7C21.6016 15.1133 21.4216 14.6333 21.0616 14.26C20.7016 13.8867 20.175 13.7 19.4816 13.7C18.7883 13.7 18.2616 13.8933 17.9016 14.28C17.5416 14.6667 17.3616 15.1867 17.3616 15.84H14.1816C14.1816 14.92 14.3816 14.0933 14.7816 13.36C15.1816 12.6133 15.775 12.0267 16.5616 11.6C17.3483 11.1733 18.3216 10.96 19.4816 10.96C20.6416 10.96 21.6083 11.1667 22.3816 11.58C23.1683 11.9933 23.7616 12.5467 24.1616 13.24C24.575 13.9333 24.7816 14.7133 24.7816 15.58V15.82C24.7816 16.94 24.475 17.8667 23.8616 18.6C23.2483 19.32 22.3016 19.96 21.0216 20.52L18.6816 21.54C18.2816 21.7133 17.995 21.8933 17.8216 22.08C17.6616 22.2667 17.5816 22.52 17.5816 22.84V23.84L16.8016 23.18H24.8016V26H14.3816Z" fill="white"/>
</svg>
