<svg width="18" height="19" viewBox="0 0 18 19" fill="none" xmlns="http://www.w3.org/2000/svg">
<path d="M14.8438 3.32812C13.2422 1.6875 11.0547 0.75 8.71094 0.75C3.94531 0.75 0.0390625 4.65625 0.0390625 9.42188C0.0390625 10.9844 0.46875 12.4688 1.21094 13.7578L0 18.25L4.57031 17.0781C5.85938 17.7422 7.26562 18.1328 8.71094 18.1328C13.5156 18.1328 17.5 14.2266 17.5 9.46094C17.5 7.11719 16.4844 4.96875 14.8438 3.32812ZM8.71094 16.6484C7.42188 16.6484 6.17188 16.2969 5.03906 15.6328L4.80469 15.4766L2.07031 16.2188L2.8125 13.5625L2.61719 13.2891C1.91406 12.1172 1.52344 10.7891 1.52344 9.42188C1.52344 5.47656 4.76562 2.23438 8.75 2.23438C10.6641 2.23438 12.4609 2.97656 13.8281 4.34375C15.1953 5.71094 16.0156 7.50781 16.0156 9.46094C16.0156 13.4062 12.6953 16.6484 8.71094 16.6484ZM12.6953 11.2578C12.4609 11.1406 11.4062 10.6328 11.2109 10.5547C11.0156 10.4766 10.8594 10.4375 10.7031 10.6719C10.5859 10.8672 10.1562 11.375 10.0391 11.5312C9.88281 11.6484 9.76562 11.6875 9.57031 11.5703C8.28125 10.9453 7.46094 10.4375 6.60156 8.99219C6.36719 8.60156 6.83594 8.64062 7.22656 7.82031C7.30469 7.66406 7.26562 7.54688 7.22656 7.42969C7.1875 7.3125 6.71875 6.25781 6.5625 5.82812C6.36719 5.39844 6.21094 5.4375 6.05469 5.4375C5.9375 5.4375 5.78125 5.4375 5.66406 5.4375C5.50781 5.4375 5.27344 5.47656 5.07812 5.71094C4.88281 5.94531 4.33594 6.45312 4.33594 7.50781C4.33594 8.60156 5.07812 9.61719 5.19531 9.77344C5.3125 9.89062 6.71875 12.0781 8.90625 13.0156C10.2734 13.6406 10.8203 13.6797 11.5234 13.5625C11.9141 13.5234 12.7734 13.0547 12.9688 12.5469C13.1641 12.0391 13.1641 11.6094 13.0859 11.5312C13.0469 11.4141 12.8906 11.375 12.6953 11.2578Z" fill="#E7E0DA"/>
</svg>
